# xmcd CD database file
# Copyright (C) 1997 Ti Kan
# 
# Track frame offsets:
#     183
#     12903
#     22800
#     35130
#     44653
#     54510
#     65535
#     74778
#     91640
#     103300
#     114045
#     124848
#     138413
#     147425
#     157645
#     170480
# 
# Disc length: 2433 seconds
# 
# Revision: 1
# Processed by: cddbd v1.4b41PL1 Copyright (c) Steve Scherf et al.
# Submitted via: DiscPlay 4.0.4
# 
DISCID=dc097f10
DTITLE=Patsy Cline - Dreaming
DYEAR=1900
DGENRE=
TTITLE0=I Fall To Pieces
TTITLE1=Heartaches
TTITLE2=Crazy
TTITLE3=Tra Le La Le La Triangle
TTITLE4=Have You Ever Been Lonely
TTITLE5=There He Goes
TTITLE6=Back In Baby's Arms
TTITLE7=Faded Love
TTITLE8=Sweet Dreams
TTITLE9=Your Cheatin' Heart
TTITLE10=San Antonio Rose
TTITLE11=She's Got You
TTITLE12=Walking After Midnight
TTITLE13=Three Cigarettes In An Ashtray
TTITLE14=When You Need A Laugh
TTITLE15=Always
EXTD=
EXTT0=
EXTT1=
EXTT2=
EXTT3=
EXTT4=
EXTT5=
EXTT6=
EXTT7=
EXTT8=
EXTT9=
EXTT10=
EXTT11=
EXTT12=
EXTT13=
EXTT14=
EXTT15=
PLAYORDER=
